<svg width="109" height="109" viewBox="0 0 109 109" fill="none" xmlns="http://www.w3.org/2000/svg">
<path d="M22.8934 15.4373C21.4418 15.4373 20.0229 15.8677 18.816 16.674C17.6091 17.4803 16.6683 18.6264 16.1128 19.9673C15.5574 21.3082 15.412 22.7836 15.6952 24.207C15.9784 25.6305 16.6774 26.938 17.7038 27.9643C18.7302 28.9905 20.0379 29.6895 21.4616 29.9726C22.8852 30.2557 24.3609 30.1104 25.702 29.555C27.043 28.9996 28.1891 28.0591 28.9956 26.8523C29.802 25.6456 30.2325 24.2268 30.2325 22.7755C30.2325 20.8293 29.4593 18.9627 28.0829 17.5866C26.7066 16.2104 24.8398 15.4373 22.8934 15.4373ZM22.8934 25.2215C22.4095 25.2215 21.9366 25.078 21.5343 24.8092C21.132 24.5405 20.8183 24.1585 20.6332 23.7115C20.448 23.2646 20.3996 22.7727 20.494 22.2982C20.5884 21.8237 20.8214 21.3879 21.1636 21.0458C21.5057 20.7037 21.9416 20.4707 22.4162 20.3764C22.8907 20.282 23.3826 20.3304 23.8296 20.5156C24.2766 20.7007 24.6587 21.0142 24.9275 21.4165C25.1963 21.8187 25.3397 22.2917 25.3397 22.7755C25.3397 23.4242 25.082 24.0463 24.6232 24.505C24.1644 24.9638 23.5422 25.2215 22.8934 25.2215ZM59.5889 66.8044C59.9109 66.8062 60.2301 66.7446 60.5281 66.6228C60.8262 66.5011 61.0973 66.3217 61.3259 66.095L71.1114 56.3108C71.3382 56.0822 71.5175 55.8112 71.6392 55.5132C71.761 55.2152 71.8227 54.896 71.8208 54.5741C71.8236 54.0883 71.6816 53.6126 71.413 53.2077C71.1444 52.8028 70.7614 52.4871 70.3126 52.3008C69.8638 52.1145 69.3698 52.066 68.8933 52.1616C68.4169 52.2571 67.9796 52.4925 67.6375 52.8374L57.852 62.6216C57.507 62.9638 57.2718 63.4009 57.1762 63.8772C57.0806 64.3536 57.129 64.8476 57.3153 65.2963C57.5017 65.7451 57.8175 66.1281 58.2224 66.3966C58.6273 66.6652 59.103 66.8072 59.5889 66.8044ZM107.807 55.2835L53.9868 1.47037C53.7582 1.24367 53.4871 1.06427 53.189 0.94254C52.891 0.820813 52.5718 0.759136 52.2498 0.760997H8.21513C6.26868 0.760997 4.4019 1.53408 3.02555 2.91025C1.6492 4.28642 0.876017 6.15295 0.876017 8.09915V52.1281C0.874156 52.45 0.935841 52.7691 1.05758 53.0671C1.17933 53.3652 1.35868 53.6362 1.58541 53.8647L55.4056 107.678C55.633 107.907 55.9036 108.089 56.2017 108.213C56.4999 108.337 56.8196 108.401 57.1426 108.401C57.4655 108.401 57.7853 108.337 58.0834 108.213C58.3815 108.089 58.6521 107.907 58.8796 107.678L107.807 58.7568C108.034 58.5283 108.213 58.2573 108.335 57.9592C108.457 57.6612 108.518 57.3421 108.516 57.0202C108.518 56.6982 108.457 56.3791 108.335 56.0811C108.213 55.7831 108.034 55.5121 107.807 55.2835ZM57.1426 102.468L5.76876 51.1007V8.09915C5.76876 7.45042 6.02654 6.82821 6.48532 6.36949C6.94411 5.91077 7.56632 5.6531 8.21513 5.6531H51.2469L102.621 57.0202L57.1426 102.468ZM57.1426 88.8188C57.4645 88.8207 57.7837 88.759 58.0818 88.6373C58.3798 88.5156 58.651 88.3362 58.8796 88.1095L73.5578 73.4331C73.7845 73.2046 73.9639 72.9336 74.0856 72.6355C74.2074 72.3375 74.269 72.0184 74.2672 71.6965C74.27 71.2106 74.128 70.7349 73.8594 70.33C73.5908 69.9252 73.2077 69.6095 72.7589 69.4232C72.3102 69.2368 71.8161 69.1884 71.3397 69.2839C70.8633 69.3795 70.426 69.6148 70.0838 69.9598L55.4056 84.6361C55.0606 84.9782 54.8254 85.4153 54.7298 85.8917C54.6342 86.368 54.6826 86.8621 54.869 87.3108C55.0553 87.7595 55.3711 88.1425 55.776 88.4111C56.181 88.6797 56.6567 88.8216 57.1426 88.8188ZM45.6201 74.8519C45.1594 75.3125 44.9007 75.9372 44.9007 76.5886C44.9007 77.24 45.1594 77.8646 45.6201 78.3252C46.0808 78.7859 46.7056 79.0446 47.3571 79.0446C48.0086 79.0446 48.6334 78.7859 49.0941 78.3252L53.9868 73.4331C54.2135 73.2046 54.3929 72.9336 54.5146 72.6355C54.6364 72.3375 54.6981 72.0184 54.6962 71.6965C54.699 71.2106 54.557 70.7349 54.2884 70.33C54.0198 69.9252 53.6368 69.6095 53.188 69.4232C52.7392 69.2368 52.2452 69.1884 51.7687 69.2839C51.2923 69.3795 50.855 69.6148 50.5129 69.9598L45.6201 74.8519Z" fill="#CDD6E2" fill-opacity="0.5"/>
</svg>
